<svg width="17" height="14" viewBox="0 0 17 14" fill="none" xmlns="http://www.w3.org/2000/svg">
<path d="M10.7667 5.38473H2.13178L7.72989 0.952177C7.78704 0.906851 7.83424 0.851273 7.86878 0.788616C7.90333 0.725958 7.92455 0.657449 7.93123 0.586999C7.93792 0.516549 7.92993 0.445537 7.90773 0.37802C7.88553 0.310502 7.84956 0.247801 7.80186 0.193495C7.75416 0.139189 7.69566 0.0943425 7.62972 0.0615158C7.56378 0.0286891 7.49168 0.00852486 7.41754 0.00217484C7.3434 -0.00417517 7.26867 0.00341317 7.19762 0.0245066C7.12656 0.0456001 7.06057 0.0797855 7.00342 0.125111L0.203413 5.50965C0.19718 5.5145 0.194913 5.52258 0.189247 5.52742C0.149297 5.56388 0.1153 5.60581 0.0883798 5.65181C0.0750125 5.66906 0.0627139 5.68704 0.0515464 5.70565C0.0176008 5.77421 0 5.84904 0 5.9248C0 6.00057 0.0176008 6.0754 0.0515464 6.14395C0.0627139 6.16257 0.0750125 6.18054 0.0883798 6.1978C0.1153 6.2438 0.149297 6.28572 0.189247 6.32218C0.194913 6.32703 0.19718 6.3351 0.203413 6.33995L7.00342 11.7245C7.06057 11.7698 7.12656 11.804 7.19762 11.8251C7.26867 11.8462 7.3434 11.8538 7.41754 11.8474C7.49168 11.8411 7.56378 11.8209 7.62972 11.7881C7.69566 11.7553 7.75416 11.7104 7.80186 11.6561C7.84956 11.6018 7.88553 11.5391 7.90773 11.4716C7.92993 11.4041 7.93792 11.3331 7.93123 11.2626C7.92455 11.1922 7.90333 11.1236 7.86878 11.061C7.83424 10.9983 7.78704 10.9428 7.72989 10.8974L2.13178 6.46164H10.7667C12.1188 6.46307 13.4151 6.97409 14.3713 7.8826C15.3274 8.79111 15.8652 10.0229 15.8667 11.3077V13.4615C15.8667 13.6044 15.9264 13.7413 16.0326 13.8423C16.1389 13.9433 16.283 14 16.4333 14C16.5836 14 16.7278 13.9433 16.834 13.8423C16.9403 13.7413 17 13.6044 17 13.4615V11.3077C16.9981 9.73742 16.3407 8.23196 15.1721 7.12158C14.0036 6.01121 12.4192 5.38658 10.7667 5.38473Z" fill="#2C2C2C"/>
</svg>
