<svg width="75" height="71" viewBox="0 0 75 71" fill="none" xmlns="http://www.w3.org/2000/svg">
<path d="M37.2698 71C22.8767 70.5506 12.1065 64.6595 3.73125 54.2242C2.62802 52.8497 1.5585 51.4257 0.668671 49.9128C-0.56966 47.8073 -0.0139944 45.1074 1.72559 43.8952C3.61381 42.5795 5.63115 42.9651 7.51473 45.0306C8.0181 45.5826 8.45233 46.1953 8.93182 46.7692C14.0261 52.8657 20.1726 57.4312 28.0456 59.4096C30.6897 60.074 33.3495 60.4941 36.1321 60.5806C48.6185 60.969 58.3479 55.8454 66.1062 46.5193C66.6711 45.8401 67.1619 45.0914 67.7854 44.4711C69.3804 42.8844 71.4888 42.7098 73.1776 43.9516C74.8842 45.2067 75.5757 47.6173 74.3864 49.3821C67.1468 60.1262 57.9204 68.1699 44.4782 70.2439C41.8452 70.6501 39.1727 70.8056 37.2698 71Z" fill="#E83E4C"/>
<path d="M37.1589 21.6136C37.2919 18.0795 38.7089 14.999 41.9627 12.9811C45.7248 10.6481 49.4649 8.22202 53.4587 6.31901C56.7151 4.7672 59.248 4.87323 60.8747 7.54616C62.5016 10.2191 61.6746 13.1899 58.6661 15.0671C56.2007 16.6057 53.6579 18.027 51.1744 19.5392C48.2698 21.3076 48.2822 22.3664 51.2444 24.1608C53.731 25.6672 56.2999 27.0486 58.7537 28.6025C61.534 30.3631 62.4004 33.0877 61.1529 35.6275C59.9061 38.166 57.1585 39.2699 54.4528 37.8792C49.831 35.5037 45.2606 32.9871 41.0408 29.9781C38.2825 28.0113 37.2274 25.0537 37.1589 21.6136Z" fill="#E83E4C"/>
<path d="M16.6014 19.1823C16.6014 14.6712 16.5674 10.1597 16.611 5.64918C16.6534 1.279 19.3044 -0.819859 23.4116 0.295319C24.638 0.628296 25.4937 1.57645 25.9469 2.79993C26.3286 3.83027 26.5308 4.89839 26.5306 6.00508C26.5294 14.8222 26.5609 23.6394 26.5241 32.4564C26.5091 36.0578 24.7695 38.2566 21.961 38.4681C18.9078 38.6981 16.7217 36.6919 16.6526 33.3297C16.5557 28.6158 16.6281 23.8983 16.6281 19.1823C16.6193 19.1823 16.6103 19.1823 16.6014 19.1823Z" fill="#E83E4C"/>
</svg>
