<svg width="22" height="19" viewBox="0 0 22 19" fill="none" xmlns="http://www.w3.org/2000/svg">
<path d="M0.802063 19C0.717639 19.0004 0.633724 18.9865 0.553721 18.9588C0.386412 18.903 0.241633 18.7922 0.141732 18.6434C0.0418304 18.4946 -0.00763953 18.3162 0.0009578 18.1356C0.0009578 18.0122 0.826096 6.05941 12.4902 5.12097V0.823913C12.4901 0.660253 12.5374 0.500264 12.6262 0.364381C12.7149 0.228498 12.8411 0.122889 12.9886 0.0610419C13.136 -0.000804923 13.2981 -0.0160819 13.454 0.0171619C13.61 0.0504058 13.7527 0.130662 13.8641 0.247679L21.771 8.54545C21.9178 8.69933 22 8.90621 22 9.12169C22 9.33716 21.9178 9.54404 21.771 9.69792L13.8641 17.9957C13.7527 18.1127 13.61 18.193 13.454 18.2262C13.2981 18.2595 13.136 18.2442 12.9886 18.1823C12.8411 18.1205 12.7149 18.0149 12.6262 17.879C12.5374 17.7431 12.4901 17.5831 12.4902 17.4195V13.2047C4.70345 13.5093 1.51104 18.5555 1.479 18.6172C1.40672 18.7345 1.30676 18.8311 1.18841 18.898C1.07006 18.9649 0.937154 19 0.802063 19ZM14.0924 2.84073V5.89066C14.0925 6.10408 14.012 6.30921 13.8678 6.46279C13.7235 6.61637 13.5269 6.70638 13.3193 6.71385C5.77292 6.99785 3.0732 12.1634 2.10386 15.485C4.10662 13.7069 7.67555 11.5336 13.2432 11.5336H13.2793C13.4917 11.5336 13.6955 11.6204 13.8457 11.7747C13.996 11.9291 14.0804 12.1385 14.0804 12.3568V15.4068L20.0887 9.1258L14.0924 2.84073Z" fill="#7D62E4"/>
</svg>
