<svg width="35" height="28" viewBox="0 0 35 28" fill="none" xmlns="http://www.w3.org/2000/svg">
<path d="M12.1915 12.1262H11.7349C10.6069 12.1262 10.5827 12.1291 10.7136 13.2442C10.9171 14.9774 11.6022 16.469 12.9913 17.5645C14.839 19.0215 16.9404 19.3868 19.199 18.9748C22.2952 18.4099 24.5686 15.6548 24.5991 12.4838C24.6019 12.1973 24.5284 12.1129 24.2458 12.1199C23.5005 12.1386 22.7531 12.1543 22.0093 12.1152C21.5975 12.0935 21.5121 12.2363 21.4916 12.6247C21.4077 14.2224 20.3661 15.4825 18.8463 15.7923C18.2864 15.9065 17.6943 15.9409 17.1237 15.9032C15.6793 15.8075 14.4836 15.2615 13.9612 13.7649C13.8168 13.3513 13.7668 12.8965 13.7266 12.4557C13.703 12.1974 13.6348 12.1087 13.3783 12.1212C12.9835 12.1404 12.5872 12.1263 12.1915 12.1262ZM17.4573 27.9878C11.7904 27.9878 6.12357 27.9811 0.456813 28C-0.0186095 28.0016 -0.0443005 27.8399 0.0337785 27.4551C0.786225 23.7458 1.13859 19.9954 1.22288 16.2101C1.31989 11.8571 1.15157 7.5137 0.908098 3.17103C0.856351 2.24773 0.791895 1.32396 0.690319 0.405382C0.652377 0.0625458 0.722501 -0.0206146 1.05393 0.00401878C2.54181 0.114315 4.03007 0.231464 5.52024 0.297215C8.82113 0.442795 12.1234 0.665239 15.4248 0.661257C19.8997 0.655886 24.3749 0.487341 28.8487 0.347965C30.5062 0.296289 32.1609 0.138117 33.8152 0.0076313C34.2012 -0.0228367 34.3297 0.0389328 34.305 0.484468C34.1048 4.10183 33.8382 7.71957 33.7856 11.3402C33.7385 14.5898 33.8447 17.8493 34.0594 21.0924C34.2024 23.2515 34.6406 25.3919 34.9811 27.535C35.0446 27.9344 34.9562 27.995 34.5949 27.9943C28.8823 27.985 23.1698 27.9878 17.4573 27.9878Z" fill="#EE255F"/>
</svg>
