<svg width="29" height="29" viewBox="0 0 29 29" fill="none" xmlns="http://www.w3.org/2000/svg">
<circle cx="14.5" cy="14.5" r="14.5" fill="#FF4B81"/>
<path d="M14.424 21.144H14.456C12.184 21.144 10.168 19.544 10.168 17.048V10.984C10.184 10.408 10.728 9.896 11.336 9.896C11.976 9.896 12.504 10.392 12.504 10.984V17.048C12.504 18.184 13.464 18.936 14.456 18.936C15.416 18.936 16.376 18.184 16.376 17.048V10.984C16.376 10.392 16.904 9.896 17.544 9.896C18.152 9.896 18.696 10.408 18.712 10.984V17.048C18.712 19.544 16.696 21.144 14.424 21.144Z" fill="white"/>
</svg>
